# xmcd CD database file
#
# Track frame offsets:
#	150
#	22550
#	34527
#	50067
#	62667
#	75715
#	93847
#	107495
#	117280
#	129445
#	143882
#	155322
#	172745
#	187208
#	200048
#	218110
#	234238
#	243175
#	255913
#	268138
#	281115
#	293265
#	306765
#	321920
#
# Disc length: 4490 seconds
#
# Revision: 0
# Processed by: cddbd v1.4PL0 Copyright (c) Steve Scherf et al.
# Submitted via: CDex 1.40Beta6
#
DISCID=43118818
DTITLE=J J Cale - Guitar man_Troubadour
DYEAR=1976
DGENRE=Blues
TTITLE0=Death in the wilderness
TTITLE1=it's hard to tell
TTITLE2=Day's go by
TTITLE3=Low down
TTITLE4=This town
TTITLE5=Guitar man
TTITLE6=If I head a rocket
TTITLE7=Perfect womman
TTITLE8=Old blue
TTITLE9=Doctor told me
TTITLE10=Miss of st. Louie
TTITLE11=Nobody knows
TTITLE12=Hey baby
TTITLE13=Travelin' light
TTITLE14=You got something
TTITLE15=Ride me high
TTITLE16=Hold on
TTITLE17=Cocaine
TTITLE18=I'm a gypsy man
TTITLE19=The woman that got away
TTITLE20=Super blue
TTITLE21=Let me do it to you
TTITLE22=Cherry
TTITLE23=You got me on so bad
EXTD=
EXTT0=
EXTT1=
EXTT2=
EXTT3=
EXTT4=
EXTT5=
EXTT6=
EXTT7=
EXTT8=
EXTT9=
EXTT10=
EXTT11=
EXTT12=
EXTT13=
EXTT14=
EXTT15=
EXTT16=
EXTT17=
EXTT18=
EXTT19=
EXTT20=
EXTT21=
EXTT22=
EXTT23=
PLAYORDER=
